<svg height="523pt" preserveAspectRatio="xMidYMid meet" viewBox="0 0 900 523" width="900pt" xmlns="http://www.w3.org/2000/svg"><g fill="#fff" stroke="#fff" transform="matrix(.1 0 0 -.1 0 523)"><path d="m6280 5079c-569-70-993-349-1210-794-99-203-146-383-157-597-6-126-6-128-30-128-19 0-23-5-23-30 0-16 5-31 10-31 6-1 16-2 23-3 8-1 14-30 19-91 21-285 124-597 273-826l48-74-28-75c-76-208-106-408-107-720 0-245 17-450 58-690 22-127 66-327 81-366 4-12-36-14-230-14h-236l-3 27c-3 26-13 31-239 109l-236 82-524-24c-471-21-1167-33-1181-19-5 5 6 103 18 157l6 28h588 588l101 118c56 64 117 135 136 156 23 27 33 46 30 60-3 12-118 622-255 1356s-252 1345-255 1358l-5 22h-1293-1292l-86-87c-46-49-113-118-147-155l-62-66v-240-240l54-46 53-46 46-192c26-106 123-510 215-898l169-705-44-350c-34-270-48-356-62-375l-18-25-492-3-491-2 2-273 3-272h4405 4405l3 273 2 272h-463-464l-7 152c-24 535-163 1007-422 1434l-47 77 59 50c278 237 477 561 573 932 53 203 76 426 61 595-55 634-534 1064-1320 1185-124 19-490 28-600 14zm581-103c150-23 235-43 359-83 130-41 326-137 421-205 220-157 370-368 436-614 25-93 27-112 27-314 1-196-2-226-27-341-124-581-437-989-940-1229-103-49-316-127-321-118-13 25-130 197-163 240-71 93-202 226-288 293-114 89-223 148-350 191-100 34-122 38-246 42-105 3-148 1-190-11-76-23-175-92-239-169l-55-66-34 51c-69 107-191 392-191 447 0 16 4 17 43 8 23-5 87-8 142-6 82 4 109 9 150 30 119 62 157 160 120 313-19 81-19 81 16 95 30 13 69 62 69 86 0 7-12 14-26 17-20 3-28-1-36-19-22-48-73-58-317-62l-224-4 6 124c35 663 453 1147 1114 1288 54 11 134 25 178 30 111 12 450 4 566-14zm-3368-988c3-13 116-616 252-1341l247-1317-97-116c-53-63-98-114-100-112s-69 318-150 703c-80 385-170 815-200 955s-88 417-129 615c-42 198-78 370-81 382l-5 23-1233 2-1232 3 105 112 105 111 1256 1 1257 1zm-350-275c3-5-55-111-127-238l-132-230-1040-3-1040-2-42 36-42 36v204 204h1209c666 0 1212-3 1214-7zm90-240c34-170 105-506 382-1818 67-319 121-583 119-586s-65 3-141 12c-76 10-143 18-149 19-7 0-15 12-19 27-8 34-221 923-380 1591l-115 484 127 224c71 123 131 224 134 224s22-80 42-177zm2215-19c44-126 17-228-72-273-86-44-326-39-340 7-9 28-36 224-36 264v38l208 2c114 2 212 3 217 2 6 0 16-18 23-40zm-2518-519c288-1203 432-1816 427-1822-7-6-719 16-726 23-2 1 24 198 58 437 33 238 61 444 61 458 0 43-142 614-158 632-14 16-57 17-624 17-466 0-608-3-608-12 0-32-132-1045-138-1061-5-12-78 274-195 765-103 430-187 789-187 795 0 10 215 12 1016 10l1016-2zm3014-234c76-39 110-45 85-15-18 22-6 17 89-30 156-79 314-213 452-386 74-93 153-211 146-218-10-10-141-32-246-42-279-26-561 46-800 204-100 67-234 186-291 258-30 37-31 41-18 66 22 43 131 147 179 172 31 16 41 18 32 7-22-26 4-30 48-7 104 53 207 50 324-9zm-3408-108c-6-27-236-1868-236-1885 0-4-255-8-566-8h-566l6 38c4 20 26 195 51 387 106 837 185 1452 190 1473l5 22h561 561zm69-1181c-48-345-91-631-95-635-8-9-141-59-145-55-2 2 46 392 106 868s109 870 110 875c0 6 26-88 56-208l56-218zm2995 736c162-107 314-172 493-209 135-29 377-31 517-5 178 33 162 35 189-23l24-50-39-48c-88-108-288-326-424-463-285-287-524-480-796-645-105-64-110-66-168-63l-61 3-18 65c-31 113-76 349-99 520-19 139-22 211-23 460 0 319 11 423 61 598 41 140 30 138 153 20 59-57 145-129 191-160zm1906-25 55-92-16-158c-55-556-132-918-240-1133-19-36-40-74-48-85-15-20-15-20-21 5-2 14-8 68-11 120-18 280-112 653-242 962l-45 108 90 112c89 112 91 113 196 167 59 30 128 69 154 87 55 38 47 44 128-93zm223-491c93-275 138-526 157-869l7-123h-267-266l25 50c61 121 112 280 155 492 32 152 74 436 85 568 4 41 9 82 12 90 7 20 42-60 92-208zm-801 1c62-159 123-364 156-528 29-140 56-344 56-417v-48h-747c-420 0-743 4-737 9 5 4 45 32 89 61 114 76 262 190 385 294 146 125 450 432 604 609 71 81 132 147 136 147s30-57 58-127zm-2664-870c3-16 8-67 12-115l6-88h-375-375l-79 91c-43 49-79 94-81 98-2 7 571 37 780 39l106 2zm212-34c82-28 168-58 192-66 42-15 43-16 40-57l-3-41h-180-180l-10 108c-6 59-10 107-9 107s68-23 150-51zm-1095-89c52-61 95-119 97-130 3-20-3-20-520-20h-523l-34 81c-18 44-32 81-30 83s45 18 94 35c87 30 99 31 380 45 160 7 324 14 366 15l75 1zm-1013-142 60-143-770-3c-424-1-773 0-776 3-3 2 55 67 129 144l134 140h581l581 1zm-1423 20c-33-35-96-100-140-145-44-46-73-83-65-83h884c656 0 872 3 877 12 4 6-1 35-12 62-10 28-19 54-19 59 0 4 243 7 541 7 377 0 538 3 534 11-4 5-4 21-1 34l6 25 608 2 607 3 3 38 3 37h244 244l23-42c32-59 54-59 165-3l91 45h805 806l3-42c3-40 5-43 34-46 25-2 41 6 81 42l51 46 613-1c545-1 608-3 559-15s-659-139-1659-344l-344-70-3166 2-3166 3-3 200c-1 110 0 205 2 212 4 10 94 13 428 13h422zm7903-155-3-208-1000-3c-549-1-995 2-990 6 6 5 170 41 365 81 195 39 634 130 975 201 341 70 628 129 638 129 16 1 17-13 15-206z"/><path d="m5897 3654c-4-4-7-22-7-39 0-37 32-82 67-96 20-7 22-13 16-36-15-53-7-148 16-195 54-112 198-204 365-233 111-19 183-19 282 0 212 40 341 163 352 333 5 84-20 197-47 211-20 11-304-2-534-24-194-19-392-20-427-2-17 9-26 22-28 45-2 17-7 32-12 32s-15 2-22 5c-8 3-17 2-21-1zm1021-149c22-63 11-173-22-229-69-118-248-187-445-172-258 19-425 137-425 301-1 96-2 95 109 95 53 0 203 9 333 20 253 21 346 27 402 26 32-1 36-5 48-41z"/><path d="m5692 2533 3-28 153-3 152-3v31 30h-156-155z"/></g></svg>